<svg xmlns="http://www.w3.org/2000/svg" width="570" height="391.824" viewBox="0 0 570 391.824">
  <g id="No_product_found_in_shelves" data-name="No product found in shelves" transform="translate(-1750 -537)">
    <rect id="Rectangle_1857" data-name="Rectangle 1857" width="570" height="10" transform="translate(1750 867)" fill="#dbdbdb"/>
    <path id="Path_18695" data-name="Path 18695" d="M18,0H552l18,25H0Z" transform="translate(1750 842)" fill="#c4c4c4"/>
    <rect id="Rectangle_1858" data-name="Rectangle 1858" width="534" height="40" transform="translate(1768 802)" fill="#969696"/>
    <rect id="Rectangle_1857-2" data-name="Rectangle 1857" width="570" height="10" transform="translate(1750 792)" fill="#dbdbdb"/>
    <path id="Path_18695-2" data-name="Path 18695" d="M18,0H552l18,25H0Z" transform="translate(1750 767)" fill="#c4c4c4"/>
    <rect id="Rectangle_1858-2" data-name="Rectangle 1858" width="534" height="40" transform="translate(1768 727)" fill="#969696"/>
    <rect id="Rectangle_1857-3" data-name="Rectangle 1857" width="570" height="10" transform="translate(1750 717)" fill="#dbdbdb"/>
    <path id="Path_18695-3" data-name="Path 18695" d="M18,0H552l18,25H0Z" transform="translate(1750 692)" fill="#c4c4c4"/>
    <rect id="Rectangle_1858-3" data-name="Rectangle 1858" width="534" height="40" transform="translate(1768 652)" fill="#969696"/>
    <rect id="Rectangle_1857-4" data-name="Rectangle 1857" width="570" height="10" transform="translate(1750 642)" fill="#dbdbdb"/>
    <path id="Path_18695-4" data-name="Path 18695" d="M18,0H552l18,25H0Z" transform="translate(1750 617)" fill="#c4c4c4"/>
    <path id="Rectangle_1858-4" data-name="Rectangle 1858" d="M6,0H528a6,6,0,0,1,6,6V80a0,0,0,0,1,0,0H0a0,0,0,0,1,0,0V6A6,6,0,0,1,6,0Z" transform="translate(1768 537)" fill="#969696"/>
    <g id="Group_5994" data-name="Group 5994" transform="translate(2772.013 853.883)">
      <path id="Path_18696" data-name="Path 18696" d="M-646.187,639.439c57.922,0,104.878-1.428,104.878-3.191,0-1.242-23.322-2.318-57.368-2.845a8.743,8.743,0,0,1-4.719,1.376,8.747,8.747,0,0,1-4.922-1.507c-11.746-.138-24.515-.214-37.868-.214-15.7,0-30.6.105-43.968.293a8.743,8.743,0,0,1-4.8,1.429,8.745,8.745,0,0,1-4.567-1.279c-30.853.556-51.542,1.578-51.542,2.748C-751.064,638.011-704.109,639.439-646.187,639.439Z" transform="translate(-0.704 -564.498)" fill="#577677" opacity="0.28"/>
      <path id="Path_18697" data-name="Path 18697" d="M-599.716,327.074l49.039-.459a2.056,2.056,0,0,0,1.455-.62,2.052,2.052,0,0,0,.591-1.468,2.074,2.074,0,0,0-2.066-2.046l-50.43.47h-.014a.206.206,0,0,0-.034,0,1.409,1.409,0,0,0-.189.018,2.059,2.059,0,0,0-1.652,1.262l-16.652,40.455a15.684,15.684,0,0,0,1.475,14.715,15.677,15.677,0,0,0,13.044,6.962h118.593a2.069,2.069,0,0,0,2.066-2.066,2.069,2.069,0,0,0-2.066-2.067H-605.15a11.4,11.4,0,0,1-9.608-5.129,11.4,11.4,0,0,1-1.088-10.841Z" transform="translate(-97.3 -334.099)" fill="#48585e"/>
      <path id="Path_18698" data-name="Path 18698" d="M-721.664-100.577l17.57,11.828a4.133,4.133,0,0,1,1.8,3.324l.461,22.675.862,48.479a21.067,21.067,0,0,0,.293,3.148,20.619,20.619,0,0,0,.58,2.478A21.128,21.128,0,0,0-680,6.334l3.966-.05,99.5-1.255A21.09,21.09,0,0,0-556.59-10.326l13.026-46.859a5.319,5.319,0,0,0-.766-4.48h0a5.306,5.306,0,0,0-3.938-2.266L-698.6-76.309l0-.117-.185-9.072a7.644,7.644,0,0,0-3.33-6.149l-17.518-11.792A5.023,5.023,0,0,1-721.664-100.577Zm23.471,45.024,13.924,1.06,2.566,19.127-16.143-.568,0-.122Zm37.619,2.972,1.654,18.018-21.768-.768-2.068-19.047,22.172,1.689Zm1.5.007,22.93,1.745.229,17.074-21.956-.771Zm70.329,5.356,19.519,1.488-3.014,14.217-.108,0-18.954-.667Zm-3.649,15-.116,0-20.112-.707,1.4-16,21.009,1.6Zm-43.238,19.555-.128,0-20.621.536-.008-.124-1.333-20.018,21.838.768,0,.123Zm-44.81-20.4,21.732.762,1.855,20.189-21.252.552Zm45.6,1.6,21,.74-.009.132L-614.93-13.2l-20.134.524Zm22.025.775.122,0,19.979.7-.02.142-2.327,16.119-.109,0-19.17.5Zm-.884-2.283-.125,0-20.99-.741.2-16.994,21.912,1.667Zm-83.411,21.795a17.106,17.106,0,0,1-.348-3.16l-.344-19.341,16.4.576.014.108,2.873,21.439-18.578.483Zm17.341,14h-.211a17.51,17.51,0,0,1-16.422-11.49l-.061-.169,18.255-.475L-676.6,2.786Zm3.22-.039-1.314-12.1,21.216-.55,1.137,12.385Zm21.147-.267-.826-12.4,20.63-.534.17,12.677Zm20.17-.257.147-12.69,20.019-.518-.8,12.966Zm19.561-.244,1.133-12.978,19.149-.5-.022.151L-597.3,1.786Zm18.6-.235,2.255-13.255,18.436-.478-2.862,13.507Zm37.109-13.05A17.561,17.561,0,0,1-576.581,1.524l-2.445.03,3.219-13.518,16.148-.418Zm.941-3.386-16.237.424,3.576-15.011,16.557.583Zm-13.688-14.622-3.189,15.061-18.535.48,2.758-16.209Zm18.2-1.613-16.641-.586,3.368-14.146,17.009,1.3Zm-9.34-30.808,15.3,1.258a1.817,1.817,0,0,1,1.353.776,1.8,1.8,0,0,1,.264,1.539l-3.221,11.591-17.1-1.3,3.3-13.862Zm-1.954-.163-.03.143-2.919,13.767-19.609-1.493,2.393-14.076Zm-22.046-1.814-2.038,14.112-21.139-1.609,1.249-14.309Zm-23.82-1.961-.891,14.349-22.028-1.678.169-14.546Zm-24.7-2.036.195,14.586-23.048-1.757-.008-.112-.979-14.681Zm-25.785-2.121.01.108,1.353,14.724L-683-56.651l-1.625-14.991Zm-24.431-2.014.014.1,2,14.931-13.662-1.04-.078-4.383h0l0-.2-.183-10.393Z" transform="translate(-22.514 -18.134)" fill="#48585e" stroke="#48585e" stroke-miterlimit="10" stroke-width="1"/>
      <path id="Path_18699" data-name="Path 18699" d="M-751.636-120.957a5.031,5.031,0,0,0,1.618,2.092c.085.064.169.128.258.187a4.993,4.993,0,0,0,2.764.832,4.988,4.988,0,0,0,2.575-.717c.081-.049.164-.1.242-.148a5.023,5.023,0,0,0,2.028-2.861c.023-.088.05-.176.068-.265a5.044,5.044,0,0,0,.106-1.027,5.018,5.018,0,0,0-5.018-5.018,5.018,5.018,0,0,0-5.018,5.018,5,5,0,0,0,.283,1.649C-751.7-121.129-751.67-121.042-751.636-120.957Z" transform="translate(0 0)" fill="#0f1416"/>
      <path id="Path_18700" data-name="Path 18700" d="M-199.592,587.85a8.779,8.779,0,0,0,4.068-7.411,8.787,8.787,0,0,0-8.787-8.787,8.787,8.787,0,0,0-8.787,8.787,8.778,8.778,0,0,0,3.865,7.28,8.747,8.747,0,0,0,4.922,1.507A8.743,8.743,0,0,0-199.592,587.85Z" transform="translate(-399.79 -518.944)" fill="#0f1416"/>
      <path id="Path_18701" data-name="Path 18701" d="M-554.17,587.8a8.777,8.777,0,0,0,3.987-7.359,8.787,8.787,0,0,0-8.787-8.787,8.787,8.787,0,0,0-8.787,8.787,8.782,8.782,0,0,0,4.22,7.508,8.745,8.745,0,0,0,4.567,1.279A8.744,8.744,0,0,0-554.17,587.8Z" transform="translate(-136.688 -518.944)" fill="#0f1416"/>
    </g>
  </g>
</svg>
